{"title":"Go Goa Gone (2013) Hindi DVDRiP 700MB 1CD XviD MP3 ZERG","uid":15385369,"size":738565755,"categoryP":"video","categoryS":"movies","magnet":"?xt=urn:btih:5b43b4c96bf3c6e8a4149b3ea37e83b2a9259963&amp;dn=Go+Goa+Gone+%282013%29+Hindi+DVDRiP+700MB+1CD+XviD+MP3+ZERG&amp;tr=udp%3A%2F%2Ftracker.leechers-paradise.org%3A6969&amp;tr=udp%3A%2F%2Fzer0day.ch%3A1337&amp;tr=udp%3A%2F%2Fopen.demonii.com%3A1337&amp;tr=udp%3A%2F%2Ftracker.coppersurfer.tk%3A6969&amp;tr=udp%3A%2F%2Fexodus.desync.com%3A6969","seeders":1,"leechers":2,"uploader":null,"files":5,"time":1469286762,"description":"https://www.zippymoviez.de/topic-/135680-go-goa-gone-2013-download-hindi-movie-dvdrip-700mb-1cd-xvid-mp3-zerg/\r\n\r\n\r\n\r\nVideo\r\nID                          : 0\r\nFormat                      : MPEG-4 Visual\r\nFormat profile              : Advanced   \r\nFormat settings, BVOP       : 3\r\nFormat settings, QPel       : No\r\nFormat settings, GMC        : No warppoints\r\nFormat settings, Matrix     : Default (H.263)\r\nCodec ID                    : XVID\r\nCodec ID/Hint               : XviD\r\nDuration                    : 1h 44mn\r\nBit rate                    : 801 Kbps\r\nWidth                       : 688 pixels\r\nHeight                      : 288 pixels\r\nDisplay aspect ratio        : 2.40:1\r\nFrame rate                  : 24.975 (25000/1001) fps\r\nColor space                 : YUV\r\nChroma subsampling          : 4:2:0\r\nBit depth                   : 8 bits\r\nScan type                   : Progressive\r\nCompression mode            : Lossy\r\nBits/(Pixel*Frame)          : 0.162\r\nStream size                 : 600 MiB (86%)\r\nWriting library             : XviD 1.2.1 (UTC 2008-12-04)\r\n\r\nAudio\r\nID                          : 1\r\nFormat                      : MPEG Audio\r\nFormat version              : Version 1\r\nFormat profile              : Layer 3\r\nMode                        : Joint stereo\r\nMode extension              : MS Stereo\r\nCodec ID                    : 55\r\nCodec ID/Hint               : MP3\r\nDuration                    : 1h 44mn\r\nBit rate mode               : Variable\r\nBit rate                    : 119 Kbps\r\nNominal bit rate            : 128 Kbps\r\nChannel(s)                  : 2 channels\r\nSampling rate               : 48.0 KHz\r\nCompression mode            : Lossy\r\nStream size                 : 89.3 MiB (13%)\r\nAlignment                   : Aligned on interleaves\r\nInterleave, duration        : 24 ms (0.60 video frame)\r\nInterleave, preload duratio : 391 ms\r\nWriting library             : LAME3.99r\r\nEncoding settings           : -m j -V 4 -q 2 -lowpass 17 --abr 128","torrent":{"xt":"urn:btih:5b43b4c96bf3c6e8a4149b3ea37e83b2a9259963","amp;dn":"Go+Goa+Gone+%282013%29+Hindi+DVDRiP+700MB+1CD+XviD+MP3+ZERG","amp;tr":["udp%3A%2F%2Ftracker.leechers-paradise.org%3A6969","udp%3A%2F%2Fzer0day.ch%3A1337","udp%3A%2F%2Fopen.demonii.com%3A1337","udp%3A%2F%2Ftracker.coppersurfer.tk%3A6969","udp%3A%2F%2Fexodus.desync.com%3A6969"],"infoHash":"5b43b4c96bf3c6e8a4149b3ea37e83b2a9259963","infoHashBuffer":{"type":"Buffer","data":[91,67,180,201,107,243,198,232,164,20,155,62,163,126,131,178,169,37,153,99]},"announce":[],"urlList":[]}}